<?xml version="1.0" encoding="utf-8"?>
<!-- Generator: Adobe Illustrator 16.0.0, SVG Export Plug-In . SVG Version: 6.00 Build 0)  -->
<!DOCTYPE svg PUBLIC "-//W3C//DTD SVG 1.1//EN" "http://www.w3.org/Graphics/SVG/1.1/DTD/svg11.dtd">
<svg version="1.1" fill="white" id="_x31_px" xmlns="http://www.w3.org/2000/svg" xmlns:xlink="http://www.w3.org/1999/xlink" x="0px" y="0px"
	 width="316.666px" height="327px" viewBox="78.265 66.5 316.666 327" enable-background="new 78.265 66.5 316.666 327"
	 xml:space="preserve">
<path d="M394.875,137.41c-0.03-0.258-0.055-0.416-0.084-0.572c-0.001-0.004-0.02-0.099-0.02-0.103l-0.021-0.11
	c-0.045-0.204-0.095-0.409-0.155-0.609c-0.009-0.028-0.02-0.065-0.028-0.102c-0.064-0.199-0.141-0.394-0.221-0.586
	c-0.006-0.013-0.049-0.107-0.054-0.12c-0.083-0.191-0.166-0.363-0.256-0.532l-0.053-0.1c-0.697-1.272-1.738-2.311-3.01-3.001
	l-0.061-0.03c-0.175-0.093-0.354-0.18-0.539-0.26l-0.376-0.162L239.311,73.165c-1.726-0.66-3.722-0.662-5.461,0.003L83.12,131.142
	c-1.667,0.639-3.059,1.863-3.921,3.448c-0.132,0.247-0.222,0.434-0.304,0.624c-0.006,0.016-0.042,0.096-0.049,0.111
	c-0.08,0.192-0.158,0.394-0.223,0.6c-0.006,0.021-0.012,0.04-0.016,0.055c-0.068,0.224-0.12,0.433-0.166,0.644l-0.027,0.142
	c-0.043,0.232-0.067,0.396-0.087,0.562l-0.026,0.219c-0.02,0.223-0.036,0.456-0.036,0.691v185.525c0,3.13,1.951,5.98,4.854,7.095
	l150.74,57.979c0.039,0.015,0.105,0.033,0.173,0.054l0.212,0.067c0.014,0.004,0.104,0.034,0.117,0.039
	c0.177,0.054,0.354,0.097,0.533,0.138l0.174,0.041c0.218,0.045,0.382,0.065,0.546,0.086l0.229,0.032
	c0.521,0.055,1.007,0.051,1.5,0.004l0.234-0.035c0.175-0.021,0.342-0.043,0.508-0.075l0.204-0.05
	c0.188-0.043,0.361-0.085,0.538-0.137l0.521-0.168l150.729-57.973c2.906-1.113,4.854-3.967,4.854-7.097V138.238
	c0-0.235-0.016-0.469-0.036-0.7L394.875,137.41z M229,364.872c0,1.317-0.648,2.551-1.736,3.297
	c-0.676,0.465-1.467,0.703-2.265,0.703c-0.484,0-0.971-0.088-1.436-0.267L96.015,319.541c-1.545-0.596-2.564-2.078-2.564-3.732
	V155.134c0-1.318,0.649-2.551,1.735-3.297c1.087-0.746,2.471-0.909,3.701-0.436l127.548,49.057c1.545,0.594,2.563,2.078,2.563,3.733
	L229,364.872L229,364.872z M238.029,187.518c-0.461,0.178-0.947,0.267-1.437,0.267s-0.974-0.089-1.436-0.267l-118.434-45.546
	c-1.544-0.594-2.564-2.078-2.564-3.733c0-1.655,1.02-3.139,2.564-3.733L235.158,88.96c0.924-0.355,1.947-0.355,2.871,0
	l118.434,45.546c1.545,0.594,2.564,2.078,2.564,3.733c0,1.655-1.021,3.139-2.564,3.733L238.029,187.518z M379.737,315.809
	c0,1.654-1.021,3.14-2.563,3.732l-127.548,49.064c-0.465,0.179-0.952,0.267-1.437,0.267c-0.797,0-1.59-0.238-2.267-0.703
	c-1.086-0.746-1.733-1.979-1.733-3.297V204.19c0-1.655,1.02-3.139,2.563-3.733l127.55-49.057c1.229-0.474,2.613-0.311,3.7,0.436
	c1.086,0.746,1.735,1.979,1.735,3.297V315.809z"/>
</svg>
